<svg width="69" height="79" viewBox="0 0 69 79" fill="none" xmlns="http://www.w3.org/2000/svg">
<rect width="12.3807" height="12.4719" transform="matrix(0.866025 -0.5 2.20305e-08 1 57.3645 39.6328)" fill="#688D9E"/>
<rect width="12.3807" height="12.4719" transform="matrix(0.866025 -0.5 2.20305e-08 1 45.97 59.2566)" fill="#688D9E"/>
<rect width="12.3807" height="12.4719" transform="matrix(0.866025 -0.5 2.20305e-08 1 57.3645 52.6099)" fill="#688D9E"/>
<rect width="12.4549" height="12.4439" transform="matrix(0.866025 0.5 -2.20305e-08 1 11.3945 53.094)" fill="#688D9E"/>
<rect width="12.4549" height="12.4439" transform="matrix(0.866025 0.5 -2.20305e-08 1 0 46.4475)" fill="#688D9E"/>
<rect width="12.4549" height="12.4439" transform="matrix(0.866025 0.5 -2.20305e-08 1 0 33.4705)" fill="#688D9E"/>
<rect width="12.4718" height="12.3807" transform="matrix(0.866025 0.5 -0.866025 0.5 23.1167 6.64697)" fill="#688D9E"/>
<rect width="12.4718" height="12.3807" transform="matrix(0.866025 0.5 -0.866025 0.5 34.511 0)" fill="#688D9E"/>
<rect width="12.4718" height="12.3807" transform="matrix(0.866025 0.5 -0.866025 0.5 45.9055 6.64697)" fill="#688D9E"/>
<rect width="12.4718" height="12.3807" transform="matrix(0.866025 0.5 -0.866025 0.5 34.5112 13.2935)" fill="#688D9E"/>
<rect width="12.4549" height="12.4439" transform="matrix(0.866025 0.5 -2.20305e-08 1 22.7891 59.7412)" fill="#688D9E"/>
<rect width="12.3807" height="12.4719" transform="matrix(0.866025 -0.5 2.20305e-08 1 34.5754 65.9033)" fill="#688D9E"/>
<rect width="12.4549" height="12.4439" transform="matrix(0.866025 0.5 -2.20305e-08 1 22.7891 46.7639)" fill="#688D9E"/>
<rect width="12.3807" height="12.4719" transform="matrix(0.866025 -0.5 2.20305e-08 1 34.5754 52.9263)" fill="#688D9E"/>
<rect width="12.3807" height="12.4719" transform="matrix(0.866025 -0.5 2.20305e-08 1 57.3645 26.6558)" fill="#688D9E"/>
<rect width="12.4718" height="12.3807" transform="matrix(0.866025 0.5 -0.866025 0.5 57.3 13.2935)" fill="#688D9E"/>
<rect width="12.3807" height="12.4719" transform="matrix(0.866025 -0.5 2.20305e-08 1 45.97 33.3027)" fill="#688D9E"/>
<rect width="12.4718" height="12.3807" transform="matrix(0.866025 0.5 -0.866025 0.5 45.9053 19.9404)" fill="#688D9E"/>
<rect width="12.4549" height="12.4439" transform="matrix(0.866025 0.5 -2.20305e-08 1 0 20.4932)" fill="#688D9E"/>
<rect width="12.4718" height="12.3807" transform="matrix(0.866025 0.5 -0.866025 0.5 11.7224 13.2935)" fill="#688D9E"/>
<rect width="12.4549" height="12.4439" transform="matrix(0.866025 0.5 -2.20305e-08 1 11.3948 27.1401)" fill="#688D9E"/>
<rect width="12.4718" height="12.3807" transform="matrix(0.866025 0.5 -0.866025 0.5 23.1169 19.9404)" fill="#688D9E"/>
<rect width="12.4549" height="12.4439" transform="matrix(0.866025 0.5 -2.20305e-08 1 22.7891 33.7869)" fill="#688D9E"/>
<rect width="12.3807" height="12.4719" transform="matrix(0.866025 -0.5 2.20305e-08 1 34.5754 39.9492)" fill="#688D9E"/>
<rect width="12.4718" height="12.3807" transform="matrix(0.866025 0.5 -0.866025 0.5 34.511 26.5872)" fill="#688D9E"/>
</svg>
