<svg width="256" height="72" viewBox="0 0 256 72" fill="none" xmlns="http://www.w3.org/2000/svg">
<path d="M78.3973 21.9976L73.5973 9.32556H78.7333L81.0613 17.2216H81.2293L83.5573 9.32556H88.2613L83.4133 21.9976H78.3973ZM92.7572 7.83756V4.59756H97.5332V7.83756H92.7572ZM92.7572 21.9976V9.32556H97.5332V21.9976H92.7572ZM109.485 9.03756C111.181 9.03756 112.613 9.37356 113.781 10.0456C114.965 10.7016 115.557 11.7256 115.557 13.1176H111.117C111.117 12.6536 110.909 12.3256 110.493 12.1336C110.205 11.9736 109.845 11.8936 109.413 11.8936C108.261 11.8936 107.685 12.1656 107.685 12.7096C107.685 13.0136 107.885 13.2296 108.285 13.3576C108.685 13.4856 109.341 13.6216 110.253 13.7656C111.373 13.9256 112.309 14.1176 113.061 14.3416C113.813 14.5496 114.469 14.9336 115.029 15.4936C115.589 16.0376 115.869 16.8056 115.869 17.7976C115.869 19.4136 115.261 20.5656 114.045 21.2536C112.845 21.9416 111.269 22.2856 109.317 22.2856C108.197 22.2856 107.141 22.1336 106.149 21.8296C105.157 21.5096 104.349 21.0216 103.725 20.3656C103.101 19.7096 102.789 18.8776 102.789 17.8696H107.229V17.9656C107.245 18.5096 107.469 18.8936 107.901 19.1176C108.349 19.3256 108.821 19.4296 109.317 19.4296C110.645 19.4296 111.309 19.1176 111.309 18.4936C111.309 18.1736 111.101 17.9416 110.685 17.7976C110.269 17.6536 109.589 17.5016 108.645 17.3416C107.509 17.1496 106.573 16.9416 105.837 16.7176C105.117 16.4936 104.485 16.1176 103.941 15.5896C103.397 15.0456 103.125 14.2936 103.125 13.3336C103.125 11.7816 103.709 10.6776 104.877 10.0216C106.061 9.36556 107.597 9.03756 109.485 9.03756ZM130.205 21.9976L129.893 20.0776C129.397 20.7656 128.741 21.3096 127.925 21.7096C127.125 22.0936 126.277 22.2856 125.381 22.2856C123.909 22.2856 122.805 21.8776 122.069 21.0616C121.333 20.2456 120.965 19.0696 120.965 17.5336V9.32556H125.741V16.9576C125.741 17.5016 125.877 17.9416 126.149 18.2776C126.437 18.5976 126.837 18.7576 127.349 18.7576C127.941 18.7576 128.421 18.5656 128.789 18.1816C129.157 17.7976 129.341 17.3256 129.341 16.7656V9.32556H134.117V21.9976H130.205ZM146.165 9.03756C148.101 9.03756 149.677 9.36556 150.893 10.0216C152.109 10.6616 152.717 11.7096 152.717 13.1656V18.1096C152.717 18.3816 152.781 18.6056 152.909 18.7816C153.037 18.9576 153.229 19.0456 153.485 19.0456H154.349V21.8056C154.301 21.8376 154.173 21.8936 153.965 21.9736C153.773 22.0376 153.493 22.1016 153.125 22.1656C152.757 22.2456 152.333 22.2856 151.853 22.2856C150.925 22.2856 150.157 22.1496 149.549 21.8776C148.957 21.5896 148.549 21.1976 148.325 20.7016C147.717 21.1816 147.037 21.5656 146.285 21.8536C145.533 22.1416 144.653 22.2856 143.645 22.2856C140.669 22.2856 139.181 21.1016 139.181 18.7336C139.181 17.5016 139.509 16.5656 140.165 15.9256C140.837 15.2696 141.797 14.8216 143.045 14.5816C144.293 14.3416 145.925 14.2216 147.941 14.2216V13.5976C147.941 13.1016 147.765 12.7256 147.413 12.4696C147.077 12.2136 146.637 12.0856 146.093 12.0856C145.597 12.0856 145.165 12.1736 144.797 12.3496C144.445 12.5256 144.269 12.8056 144.269 13.1896V13.2856H139.565C139.549 13.2056 139.541 13.0936 139.541 12.9496C139.541 11.7496 140.109 10.7976 141.245 10.0936C142.397 9.38956 144.037 9.03756 146.165 9.03756ZM147.941 16.4776C146.581 16.4776 145.573 16.6296 144.917 16.9336C144.277 17.2216 143.957 17.6136 143.957 18.1096C143.957 18.9096 144.501 19.3096 145.589 19.3096C146.213 19.3096 146.757 19.1416 147.221 18.8056C147.701 18.4696 147.941 18.0536 147.941 17.5576V16.4776ZM158.957 21.9976V4.59756H163.733V21.9976H158.957Z" fill="#FF375C"/>
<path d="M37.3634 52.8706L31.4834 45.6706L29.4834 47.7906V52.8706H28.7634V38.8706H29.4834V46.7906L36.9634 38.8706H37.9234L32.0034 45.1306L38.2834 52.8706H37.3634ZM45.4998 42.8906H46.1798V44.8306C46.5531 44.1506 46.9998 43.6306 47.5198 43.2706C48.0398 42.9106 48.5865 42.7306 49.1598 42.7306H50.4798C51.3065 42.7306 51.9731 43.0306 52.4798 43.6306C52.9998 44.2173 53.2598 44.9973 53.2598 45.9706V52.8706H52.5598V45.9706C52.5598 45.1973 52.3665 44.5706 51.9798 44.0906C51.6065 43.6106 51.1065 43.3706 50.4798 43.3706H49.1598C48.5865 43.3706 48.0265 43.6173 47.4798 44.1106C46.9331 44.6039 46.5065 45.2573 46.1998 46.0706V52.8706H45.4998V42.8906ZM64.6321 53.0306C63.6188 53.0306 62.7988 52.7039 62.1721 52.0506C61.5588 51.3973 61.2521 50.5439 61.2521 49.4906V46.2706C61.2521 45.2173 61.5655 44.3639 62.1921 43.7106C62.8321 43.0573 63.6655 42.7306 64.6921 42.7306H66.1921C67.2321 42.7306 68.0655 43.0573 68.6921 43.7106C69.3321 44.3506 69.6521 45.2039 69.6521 46.2706V49.4906C69.6521 50.5573 69.3321 51.4173 68.6921 52.0706C68.0521 52.7106 67.2055 53.0306 66.1521 53.0306H64.6321ZM66.1521 52.3906C66.9921 52.3906 67.6655 52.1239 68.1721 51.5906C68.6921 51.0573 68.9521 50.3573 68.9521 49.4906V46.2706C68.9521 45.4039 68.6988 44.7039 68.1921 44.1706C67.6855 43.6373 67.0188 43.3706 66.1921 43.3706H64.6921C63.8655 43.3706 63.1988 43.6373 62.6921 44.1706C62.1988 44.7039 61.9521 45.4039 61.9521 46.2706V49.4906C61.9521 50.3573 62.1988 51.0573 62.6921 51.5906C63.1855 52.1239 63.8321 52.3906 64.6321 52.3906H66.1521ZM79.731 52.8706C79.5044 52.8706 79.3244 52.8106 79.191 52.6906C79.071 52.5706 78.9777 52.3706 78.911 52.0906L76.651 42.8906H77.391L79.631 52.0906H79.651L82.571 43.1706H82.871C83.0577 43.1706 83.1977 43.3173 83.291 43.6106L86.031 52.0906H86.051L88.271 42.8906H89.011L86.771 52.0906C86.7044 52.3706 86.6044 52.5706 86.471 52.6906C86.3377 52.8106 86.1577 52.8706 85.931 52.8706H85.611L82.871 44.3506L80.051 52.8706H79.731ZM98.7121 52.8706C97.9788 52.8706 97.4521 52.6839 97.1321 52.3106C96.8121 51.9239 96.6521 51.2906 96.6521 50.4106V38.8706H97.3521V50.4106C97.3521 51.0639 97.4521 51.5306 97.6521 51.8106C97.8655 52.0906 98.2188 52.2306 98.7121 52.2306H99.3321V52.8706H98.7121ZM109.65 53.0306C108.65 53.0306 107.844 52.7239 107.23 52.1106C106.63 51.4839 106.33 50.6639 106.33 49.6506V46.3306C106.33 45.2506 106.63 44.3839 107.23 43.7306C107.844 43.0639 108.644 42.7306 109.63 42.7306H111.27C112.244 42.7306 113.024 43.0506 113.61 43.6906C114.197 44.3306 114.49 45.1839 114.49 46.2506V47.8706H107.03V49.6506C107.03 50.4773 107.27 51.1439 107.75 51.6506C108.23 52.1439 108.864 52.3906 109.65 52.3906H111.17C111.944 52.3906 112.564 52.1573 113.03 51.6906C113.51 51.2239 113.75 50.6106 113.75 49.8506H114.45C114.45 50.7973 114.144 51.5639 113.53 52.1506C112.93 52.7373 112.144 53.0306 111.17 53.0306H109.65ZM113.79 47.2506V46.2506C113.79 45.3839 113.557 44.6906 113.09 44.1706C112.637 43.6373 112.03 43.3706 111.27 43.3706H109.63C108.844 43.3706 108.21 43.6439 107.73 44.1906C107.264 44.7239 107.03 45.4373 107.03 46.3306V47.2506H113.79ZM125.232 53.0306C124.285 53.0306 123.525 52.6973 122.952 52.0306C122.379 51.3639 122.092 50.4839 122.092 49.3906V46.4306C122.092 45.3239 122.399 44.4306 123.012 43.7506C123.625 43.0706 124.432 42.7306 125.432 42.7306H126.992C127.499 42.7306 127.979 42.8706 128.432 43.1506C128.899 43.4173 129.272 43.7839 129.552 44.2506V38.8706H130.252V52.8706H129.572V50.9906C129.212 51.6573 128.785 52.1639 128.292 52.5106C127.799 52.8573 127.259 53.0306 126.672 53.0306H125.232ZM126.672 52.3906C127.299 52.3906 127.872 52.1306 128.392 51.6106C128.912 51.0906 129.299 50.4039 129.552 49.5506V45.5906C129.379 44.9373 129.052 44.4039 128.572 43.9906C128.105 43.5773 127.579 43.3706 126.992 43.3706H125.432C124.645 43.3706 124.005 43.6506 123.512 44.2106C123.032 44.7706 122.792 45.5106 122.792 46.4306V49.3906C122.792 50.2839 123.012 51.0106 123.452 51.5706C123.905 52.1173 124.499 52.3906 125.232 52.3906H126.672ZM141.582 56.9306C140.822 56.9306 140.196 56.7306 139.702 56.3306C139.209 55.9439 138.929 55.4306 138.862 54.7906H139.562C139.616 55.2439 139.822 55.6039 140.182 55.8706C140.556 56.1506 141.022 56.2906 141.582 56.2906H143.262C144.049 56.2906 144.662 56.0306 145.102 55.5106C145.556 55.0039 145.782 54.2973 145.782 53.3906V51.0106C145.449 51.5706 145.029 52.0239 144.522 52.3706C144.016 52.7039 143.489 52.8706 142.942 52.8706H141.462C140.516 52.8706 139.756 52.5439 139.182 51.8906C138.609 51.2239 138.322 50.3439 138.322 49.2506V46.4506C138.322 45.3306 138.629 44.4306 139.242 43.7506C139.856 43.0706 140.662 42.7306 141.662 42.7306H143.222C143.729 42.7306 144.216 42.8706 144.682 43.1506C145.149 43.4306 145.522 43.8106 145.802 44.2906V42.8906H146.482V53.3906C146.482 54.4973 146.196 55.3639 145.622 55.9906C145.062 56.6173 144.276 56.9306 143.262 56.9306H141.582ZM142.902 52.2306C143.569 52.2306 144.162 51.9773 144.682 51.4706C145.202 50.9506 145.569 50.3839 145.782 49.7706V45.5906C145.609 44.9373 145.282 44.4039 144.802 43.9906C144.336 43.5773 143.809 43.3706 143.222 43.3706H141.662C140.876 43.3706 140.236 43.6573 139.742 44.2306C139.262 44.7906 139.022 45.5306 139.022 46.4506V49.2506C139.022 50.1439 139.242 50.8639 139.682 51.4106C140.136 51.9573 140.729 52.2306 141.462 52.2306H142.902ZM157.932 53.0306C156.932 53.0306 156.125 52.7239 155.512 52.1106C154.912 51.4839 154.612 50.6639 154.612 49.6506V46.3306C154.612 45.2506 154.912 44.3839 155.512 43.7306C156.125 43.0639 156.925 42.7306 157.912 42.7306H159.552C160.525 42.7306 161.305 43.0506 161.892 43.6906C162.478 44.3306 162.772 45.1839 162.772 46.2506V47.8706H155.312V49.6506C155.312 50.4773 155.552 51.1439 156.032 51.6506C156.512 52.1439 157.145 52.3906 157.932 52.3906H159.452C160.225 52.3906 160.845 52.1573 161.312 51.6906C161.792 51.2239 162.032 50.6106 162.032 49.8506H162.732C162.732 50.7973 162.425 51.5639 161.812 52.1506C161.212 52.7373 160.425 53.0306 159.452 53.0306H157.932ZM162.072 47.2506V46.2506C162.072 45.3839 161.838 44.6906 161.372 44.1706C160.918 43.6373 160.312 43.3706 159.552 43.3706H157.912C157.125 43.3706 156.492 43.6439 156.012 44.1906C155.545 44.7239 155.312 45.4373 155.312 46.3306V47.2506H162.072Z" fill="#7A8A97"/>
<g filter="url(#filter0_d_137_1819)">
<rect width="26.1649" height="25.9738" transform="matrix(0.866025 0.5 -0.866025 0.5 228.341 30.53)" fill="white"/>
</g>
<rect width="26.1294" height="26.1064" transform="matrix(0.866025 0.5 -2.20305e-08 1 205.847 17.9883)" fill="#344451"/>
<rect width="25.9738" height="26.1651" transform="matrix(0.866025 -0.5 2.20305e-08 1 228.476 30.9165)" fill="#4F6271"/>
<rect width="26.1649" height="25.9738" transform="matrix(0.866025 0.5 -0.866025 0.5 228.341 4.98169)" fill="#7A8A97"/>
<rect x="184.598" y="4.98169" width="0.664021" height="51.7937" fill="#FF375C"/>
<defs>
<filter id="filter0_d_137_1819" x="180.847" y="15.53" width="75.1538" height="56.0693" filterUnits="userSpaceOnUse" color-interpolation-filters="sRGB">
<feFlood flood-opacity="0" result="BackgroundImageFix"/>
<feColorMatrix in="SourceAlpha" type="matrix" values="0 0 0 0 0 0 0 0 0 0 0 0 0 0 0 0 0 0 127 0" result="hardAlpha"/>
<feOffset dx="-10"/>
<feGaussianBlur stdDeviation="7.5"/>
<feComposite in2="hardAlpha" operator="out"/>
<feColorMatrix type="matrix" values="0 0 0 0 0 0 0 0 0 0 0 0 0 0 0 0 0 0 1 0"/>
<feBlend mode="normal" in2="BackgroundImageFix" result="effect1_dropShadow_137_1819"/>
<feBlend mode="normal" in="SourceGraphic" in2="effect1_dropShadow_137_1819" result="shape"/>
</filter>
</defs>
</svg>
