<svg width="350" height="93" viewBox="0 0 350 93" fill="none" xmlns="http://www.w3.org/2000/svg">
<path d="M45.6 42L36 16.656H46.272L50.928 32.448H51.264L55.92 16.656H65.328L55.632 42H45.6ZM74.3198 13.68V7.2H83.8718V13.68H74.3198ZM74.3198 42V16.656H83.8718V42H74.3198ZM107.776 16.08C111.168 16.08 114.032 16.752 116.368 18.096C118.736 19.408 119.92 21.456 119.92 24.24H111.04C111.04 23.312 110.624 22.656 109.792 22.272C109.216 21.952 108.496 21.792 107.632 21.792C105.328 21.792 104.176 22.336 104.176 23.424C104.176 24.032 104.576 24.464 105.376 24.72C106.176 24.976 107.488 25.248 109.312 25.536C111.552 25.856 113.424 26.24 114.928 26.688C116.432 27.104 117.744 27.872 118.864 28.992C119.984 30.08 120.544 31.616 120.544 33.6C120.544 36.832 119.328 39.136 116.896 40.512C114.496 41.888 111.344 42.576 107.44 42.576C105.2 42.576 103.088 42.272 101.104 41.664C99.1201 41.024 97.5041 40.048 96.2561 38.736C95.0081 37.424 94.3841 35.76 94.3841 33.744H103.264V33.936C103.296 35.024 103.744 35.792 104.608 36.24C105.504 36.656 106.448 36.864 107.44 36.864C110.096 36.864 111.424 36.24 111.424 34.992C111.424 34.352 111.008 33.888 110.176 33.6C109.344 33.312 107.984 33.008 106.096 32.688C103.824 32.304 101.952 31.888 100.48 31.44C99.0401 30.992 97.7761 30.24 96.6881 29.184C95.6001 28.096 95.0561 26.592 95.0561 24.672C95.0561 21.568 96.2241 19.36 98.5601 18.048C100.928 16.736 104 16.08 107.776 16.08ZM149.216 42L148.592 38.16C147.6 39.536 146.288 40.624 144.656 41.424C143.056 42.192 141.36 42.576 139.568 42.576C136.624 42.576 134.416 41.76 132.944 40.128C131.472 38.496 130.736 36.144 130.736 33.072V16.656H140.288V31.92C140.288 33.008 140.56 33.888 141.104 34.56C141.68 35.2 142.48 35.52 143.504 35.52C144.688 35.52 145.648 35.136 146.384 34.368C147.12 33.6 147.488 32.656 147.488 31.536V16.656H157.04V42H149.216ZM181.136 16.08C185.008 16.08 188.16 16.736 190.592 18.048C193.024 19.328 194.24 21.424 194.24 24.336V34.224C194.24 34.768 194.368 35.216 194.624 35.568C194.88 35.92 195.264 36.096 195.776 36.096H197.504V41.616C197.408 41.68 197.152 41.792 196.736 41.952C196.352 42.08 195.792 42.208 195.056 42.336C194.32 42.496 193.472 42.576 192.512 42.576C190.656 42.576 189.12 42.304 187.904 41.76C186.72 41.184 185.904 40.4 185.456 39.408C184.24 40.368 182.88 41.136 181.376 41.712C179.872 42.288 178.112 42.576 176.096 42.576C170.144 42.576 167.168 40.208 167.168 35.472C167.168 33.008 167.824 31.136 169.136 29.856C170.48 28.544 172.4 27.648 174.896 27.168C177.392 26.688 180.656 26.448 184.688 26.448V25.2C184.688 24.208 184.336 23.456 183.632 22.944C182.96 22.432 182.08 22.176 180.992 22.176C180 22.176 179.136 22.352 178.4 22.704C177.696 23.056 177.344 23.616 177.344 24.384V24.576H167.936C167.904 24.416 167.888 24.192 167.888 23.904C167.888 21.504 169.024 19.6 171.296 18.192C173.6 16.784 176.88 16.08 181.136 16.08ZM184.688 30.96C181.968 30.96 179.952 31.264 178.64 31.872C177.36 32.448 176.72 33.232 176.72 34.224C176.72 35.824 177.808 36.624 179.984 36.624C181.232 36.624 182.32 36.288 183.248 35.616C184.208 34.944 184.688 34.112 184.688 33.12V30.96ZM206.719 42V7.2H216.271V42H206.719Z" fill="#FF375C"/>
<path d="M18.792 84L8.208 71.04L4.608 74.856V84H3.312V58.8H4.608V73.056L18.072 58.8H19.8L9.144 70.068L20.448 84H18.792ZM29.8375 66.036H31.0615V69.528C31.7335 68.304 32.5375 67.368 33.4735 66.72C34.4095 66.072 35.3935 65.748 36.4255 65.748H38.8015C40.2895 65.748 41.4895 66.288 42.4015 67.368C43.3375 68.424 43.8055 69.828 43.8055 71.58V84H42.5455V71.58C42.5455 70.188 42.1975 69.06 41.5015 68.196C40.8295 67.332 39.9295 66.9 38.8015 66.9H36.4255C35.3935 66.9 34.3855 67.344 33.4015 68.232C32.4175 69.12 31.6495 70.296 31.0975 71.76V84H29.8375V66.036ZM60.6757 84.288C58.8517 84.288 57.3757 83.7 56.2477 82.524C55.1437 81.348 54.5917 79.812 54.5917 77.916V72.12C54.5917 70.224 55.1557 68.688 56.2837 67.512C57.4357 66.336 58.9357 65.748 60.7837 65.748H63.4838C65.3557 65.748 66.8557 66.336 67.9838 67.512C69.1358 68.664 69.7118 70.2 69.7118 72.12V77.916C69.7118 79.836 69.1358 81.384 67.9838 82.56C66.8318 83.712 65.3077 84.288 63.4118 84.288H60.6757ZM63.4118 83.136C64.9237 83.136 66.1358 82.656 67.0478 81.696C67.9837 80.736 68.4517 79.476 68.4517 77.916V72.12C68.4517 70.56 67.9957 69.3 67.0838 68.34C66.1717 67.38 64.9717 66.9 63.4838 66.9H60.7837C59.2957 66.9 58.0957 67.38 57.1837 68.34C56.2957 69.3 55.8517 70.56 55.8517 72.12V77.916C55.8517 79.476 56.2957 80.736 57.1837 81.696C58.0717 82.656 59.2357 83.136 60.6757 83.136H63.4118ZM84.2538 84C83.8458 84 83.5218 83.892 83.2818 83.676C83.0658 83.46 82.8978 83.1 82.7778 82.596L78.7098 66.036H80.0418L84.0738 82.596H84.1098L89.3658 66.54H89.9058C90.2418 66.54 90.4938 66.804 90.6618 67.332L95.5938 82.596H95.6298L99.6258 66.036H100.958L96.9258 82.596C96.8058 83.1 96.6258 83.46 96.3858 83.676C96.1458 83.892 95.8218 84 95.4138 84H94.8378L89.9058 68.664L84.8298 84H84.2538ZM114.82 84C113.5 84 112.552 83.664 111.976 82.992C111.4 82.296 111.112 81.156 111.112 79.572V58.8H112.372V79.572C112.372 80.748 112.552 81.588 112.912 82.092C113.296 82.596 113.932 82.848 114.82 82.848H115.936V84H114.82ZM130.908 84.288C129.108 84.288 127.656 83.736 126.552 82.632C125.472 81.504 124.932 80.028 124.932 78.204V72.228C124.932 70.284 125.472 68.724 126.552 67.548C127.656 66.348 129.096 65.748 130.872 65.748H133.824C135.576 65.748 136.98 66.324 138.036 67.476C139.092 68.628 139.62 70.164 139.62 72.084V75H126.192V78.204C126.192 79.692 126.624 80.892 127.488 81.804C128.352 82.692 129.492 83.136 130.908 83.136H133.644C135.036 83.136 136.152 82.716 136.992 81.876C137.856 81.036 138.288 79.932 138.288 78.564H139.548C139.548 80.268 138.996 81.648 137.892 82.704C136.812 83.76 135.396 84.288 133.644 84.288H130.908ZM138.36 73.884V72.084C138.36 70.524 137.94 69.276 137.1 68.34C136.284 67.38 135.192 66.9 133.824 66.9H130.872C129.456 66.9 128.316 67.392 127.452 68.376C126.612 69.336 126.192 70.62 126.192 72.228V73.884H138.36ZM155.355 84.288C153.651 84.288 152.283 83.688 151.251 82.488C150.219 81.288 149.703 79.704 149.703 77.736V72.408C149.703 70.416 150.255 68.808 151.359 67.584C152.463 66.36 153.915 65.748 155.715 65.748H158.523C159.435 65.748 160.299 66 161.115 66.504C161.955 66.984 162.627 67.644 163.131 68.484V58.8H164.391V84H163.167V80.616C162.519 81.816 161.751 82.728 160.863 83.352C159.975 83.976 159.003 84.288 157.947 84.288H155.355ZM157.947 83.136C159.075 83.136 160.107 82.668 161.043 81.732C161.979 80.796 162.675 79.56 163.131 78.024V70.896C162.819 69.72 162.231 68.76 161.367 68.016C160.527 67.272 159.579 66.9 158.523 66.9H155.715C154.299 66.9 153.147 67.404 152.259 68.412C151.395 69.42 150.963 70.752 150.963 72.408V77.736C150.963 79.344 151.359 80.652 152.151 81.66C152.967 82.644 154.035 83.136 155.355 83.136H157.947ZM181.186 91.308C179.818 91.308 178.69 90.948 177.802 90.228C176.914 89.532 176.41 88.608 176.29 87.456H177.55C177.646 88.272 178.018 88.92 178.666 89.4C179.338 89.904 180.178 90.156 181.186 90.156H184.21C185.626 90.156 186.73 89.688 187.522 88.752C188.338 87.84 188.746 86.568 188.746 84.936V80.652C188.146 81.66 187.39 82.476 186.478 83.1C185.566 83.7 184.618 84 183.634 84H180.97C179.266 84 177.898 83.412 176.866 82.236C175.834 81.036 175.318 79.452 175.318 77.484V72.444C175.318 70.428 175.87 68.808 176.974 67.584C178.078 66.36 179.53 65.748 181.33 65.748H184.138C185.05 65.748 185.926 66 186.766 66.504C187.606 67.008 188.278 67.692 188.782 68.556V66.036H190.006V84.936C190.006 86.928 189.49 88.488 188.458 89.616C187.45 90.744 186.034 91.308 184.21 91.308H181.186ZM183.562 82.848C184.762 82.848 185.83 82.392 186.766 81.48C187.702 80.544 188.362 79.524 188.746 78.42V70.896C188.434 69.72 187.846 68.76 186.982 68.016C186.142 67.272 185.194 66.9 184.138 66.9H181.33C179.914 66.9 178.762 67.416 177.874 68.448C177.01 69.456 176.578 70.788 176.578 72.444V77.484C176.578 79.092 176.974 80.388 177.766 81.372C178.582 82.356 179.65 82.848 180.97 82.848H183.562ZM207.015 84.288C205.215 84.288 203.763 83.736 202.659 82.632C201.579 81.504 201.039 80.028 201.039 78.204V72.228C201.039 70.284 201.579 68.724 202.659 67.548C203.763 66.348 205.203 65.748 206.979 65.748H209.931C211.683 65.748 213.087 66.324 214.143 67.476C215.199 68.628 215.727 70.164 215.727 72.084V75H202.299V78.204C202.299 79.692 202.731 80.892 203.595 81.804C204.459 82.692 205.599 83.136 207.015 83.136H209.751C211.143 83.136 212.259 82.716 213.099 81.876C213.963 81.036 214.395 79.932 214.395 78.564H215.655C215.655 80.268 215.103 81.648 213.999 82.704C212.919 83.76 211.503 84.288 209.751 84.288H207.015ZM214.467 73.884V72.084C214.467 70.524 214.047 69.276 213.207 68.34C212.391 67.38 211.299 66.9 209.931 66.9H206.979C205.563 66.9 204.423 67.392 203.559 68.376C202.719 69.336 202.299 70.62 202.299 72.228V73.884H214.467Z" fill="#FF375C"/>
<rect width="39.3503" height="39.3157" transform="matrix(0.866025 0.5 -2.20305e-08 1 280 25)" fill="#FF375C"/>
<rect width="39.116" height="39.404" transform="matrix(0.866025 -0.5 2.20305e-08 1 316 44.5581)" fill="#FF375C"/>
<rect width="39.4037" height="39.116" transform="matrix(0.866025 0.5 -0.866025 0.5 314.875 4)" fill="#FF375C"/>
<rect x="249" y="6" width="1" height="78" fill="#FF375C"/>
</svg>
