<svg width="381" height="99" viewBox="0 0 381 99" fill="none" xmlns="http://www.w3.org/2000/svg">
<path d="M72.6 42L63 16.656H73.272L77.928 32.448H78.264L82.92 16.656H92.328L82.632 42H72.6ZM101.32 13.68V7.2H110.872V13.68H101.32ZM101.32 42V16.656H110.872V42H101.32ZM134.776 16.08C138.168 16.08 141.032 16.752 143.368 18.096C145.736 19.408 146.92 21.456 146.92 24.24H138.04C138.04 23.312 137.624 22.656 136.792 22.272C136.216 21.952 135.496 21.792 134.632 21.792C132.328 21.792 131.176 22.336 131.176 23.424C131.176 24.032 131.576 24.464 132.376 24.72C133.176 24.976 134.488 25.248 136.312 25.536C138.552 25.856 140.424 26.24 141.928 26.688C143.432 27.104 144.744 27.872 145.864 28.992C146.984 30.08 147.544 31.616 147.544 33.6C147.544 36.832 146.328 39.136 143.896 40.512C141.496 41.888 138.344 42.576 134.44 42.576C132.2 42.576 130.088 42.272 128.104 41.664C126.12 41.024 124.504 40.048 123.256 38.736C122.008 37.424 121.384 35.76 121.384 33.744H130.264V33.936C130.296 35.024 130.744 35.792 131.608 36.24C132.504 36.656 133.448 36.864 134.44 36.864C137.096 36.864 138.424 36.24 138.424 34.992C138.424 34.352 138.008 33.888 137.176 33.6C136.344 33.312 134.984 33.008 133.096 32.688C130.824 32.304 128.952 31.888 127.48 31.44C126.04 30.992 124.776 30.24 123.688 29.184C122.6 28.096 122.056 26.592 122.056 24.672C122.056 21.568 123.224 19.36 125.56 18.048C127.928 16.736 131 16.08 134.776 16.08ZM176.216 42L175.592 38.16C174.6 39.536 173.288 40.624 171.656 41.424C170.056 42.192 168.36 42.576 166.568 42.576C163.624 42.576 161.416 41.76 159.944 40.128C158.472 38.496 157.736 36.144 157.736 33.072V16.656H167.288V31.92C167.288 33.008 167.56 33.888 168.104 34.56C168.68 35.2 169.48 35.52 170.504 35.52C171.688 35.52 172.648 35.136 173.384 34.368C174.12 33.6 174.488 32.656 174.488 31.536V16.656H184.04V42H176.216ZM208.136 16.08C212.008 16.08 215.16 16.736 217.592 18.048C220.024 19.328 221.24 21.424 221.24 24.336V34.224C221.24 34.768 221.368 35.216 221.624 35.568C221.88 35.92 222.264 36.096 222.776 36.096H224.504V41.616C224.408 41.68 224.152 41.792 223.736 41.952C223.352 42.08 222.792 42.208 222.056 42.336C221.32 42.496 220.472 42.576 219.512 42.576C217.656 42.576 216.12 42.304 214.904 41.76C213.72 41.184 212.904 40.4 212.456 39.408C211.24 40.368 209.88 41.136 208.376 41.712C206.872 42.288 205.112 42.576 203.096 42.576C197.144 42.576 194.168 40.208 194.168 35.472C194.168 33.008 194.824 31.136 196.136 29.856C197.48 28.544 199.4 27.648 201.896 27.168C204.392 26.688 207.656 26.448 211.688 26.448V25.2C211.688 24.208 211.336 23.456 210.632 22.944C209.96 22.432 209.08 22.176 207.992 22.176C207 22.176 206.136 22.352 205.4 22.704C204.696 23.056 204.344 23.616 204.344 24.384V24.576H194.936C194.904 24.416 194.888 24.192 194.888 23.904C194.888 21.504 196.024 19.6 198.296 18.192C200.6 16.784 203.88 16.08 208.136 16.08ZM211.688 30.96C208.968 30.96 206.952 31.264 205.64 31.872C204.36 32.448 203.72 33.232 203.72 34.224C203.72 35.824 204.808 36.624 206.984 36.624C208.232 36.624 209.32 36.288 210.248 35.616C211.208 34.944 211.688 34.112 211.688 33.12V30.96ZM233.719 42V7.2H243.271V42H233.719Z" fill="#EA506C"/>
<path d="M17.172 76.332H5.472L2.592 84H1.224L10.764 58.8H11.376C11.736 58.8 12.024 59.064 12.24 59.592L21.42 84H20.052L17.172 76.332ZM5.904 75.144H16.74L11.376 60.672H11.34L5.904 75.144ZM30.1286 66.036H31.3526V69.132C31.9046 68.124 32.6726 67.344 33.6566 66.792C34.6646 66.24 35.7686 65.964 36.9686 65.964H38.0846V67.116H36.9326C35.9006 67.116 34.9526 67.356 34.0886 67.836C33.2486 68.292 32.5886 68.94 32.1086 69.78C31.6286 70.62 31.3886 71.58 31.3886 72.66V84H30.1286V66.036ZM51.3037 84.288C49.5517 84.288 48.1357 83.736 47.0557 82.632C45.9757 81.504 45.4357 80.016 45.4357 78.168V72.228C45.4357 70.284 45.9637 68.724 47.0197 67.548C48.0997 66.348 49.5157 65.748 51.2677 65.748H54.2197C55.8757 65.748 57.2077 66.192 58.2157 67.08C59.2237 67.968 59.7277 69.132 59.7277 70.572H58.5037C58.5037 69.468 58.1077 68.58 57.3157 67.908C56.5237 67.236 55.4917 66.9 54.2197 66.9H51.2677C49.8997 66.9 48.7957 67.392 47.9557 68.376C47.1157 69.336 46.6957 70.62 46.6957 72.228V78.168C46.6957 79.656 47.1157 80.856 47.9557 81.768C48.7957 82.68 49.9117 83.136 51.3037 83.136H54.2557C55.5757 83.136 56.6317 82.704 57.4237 81.84C58.2157 80.952 58.6117 79.788 58.6117 78.348H59.8357C59.8357 80.124 59.3197 81.564 58.2877 82.668C57.2797 83.748 55.9357 84.288 54.2557 84.288H51.3037ZM69.2842 58.8H70.5442V69.492C71.2162 68.268 72.0082 67.344 72.9202 66.72C73.8562 66.072 74.8402 65.748 75.8723 65.748H78.3202C79.8082 65.748 81.0082 66.288 81.9202 67.368C82.8562 68.424 83.3242 69.828 83.3242 71.58V84H82.0642V71.58C82.0642 70.188 81.7162 69.06 81.0203 68.196C80.3482 67.332 79.4482 66.9 78.3202 66.9H75.8723C74.8402 66.9 73.8322 67.344 72.8482 68.232C71.8642 69.12 71.0962 70.296 70.5442 71.76V84H69.2842V58.8ZM95.0088 62.652C94.6248 62.652 94.3128 62.544 94.0728 62.328C93.8568 62.088 93.7488 61.776 93.7488 61.392C93.7488 61.008 93.8568 60.708 94.0728 60.492C94.3128 60.252 94.6248 60.132 95.0088 60.132C95.3928 60.132 95.6928 60.252 95.9088 60.492C96.1488 60.708 96.2688 61.008 96.2688 61.392C96.2688 61.776 96.1488 62.088 95.9088 62.328C95.6928 62.544 95.3928 62.652 95.0088 62.652ZM94.3608 66.036H95.6208V84H94.3608V66.036ZM113.552 84C111.776 84 110.504 83.628 109.736 82.884C108.992 82.14 108.62 80.904 108.62 79.176V67.188H105.488V66.036H108.656V60.6H109.88V66.036H114.56V67.188H109.88V79.176C109.88 80.496 110.144 81.444 110.672 82.02C111.224 82.572 112.136 82.848 113.408 82.848H114.56V84H113.552ZM129.196 84.288C127.396 84.288 125.944 83.736 124.84 82.632C123.76 81.504 123.22 80.028 123.22 78.204V72.228C123.22 70.284 123.76 68.724 124.84 67.548C125.944 66.348 127.384 65.748 129.16 65.748H132.112C133.864 65.748 135.268 66.324 136.324 67.476C137.38 68.628 137.908 70.164 137.908 72.084V75H124.48V78.204C124.48 79.692 124.912 80.892 125.776 81.804C126.64 82.692 127.78 83.136 129.196 83.136H131.932C133.324 83.136 134.44 82.716 135.28 81.876C136.144 81.036 136.576 79.932 136.576 78.564H137.836C137.836 80.268 137.284 81.648 136.18 82.704C135.1 83.76 133.684 84.288 131.932 84.288H129.196ZM136.648 73.884V72.084C136.648 70.524 136.228 69.276 135.388 68.34C134.572 67.38 133.48 66.9 132.112 66.9H129.16C127.744 66.9 126.604 67.392 125.74 68.376C124.9 69.336 124.48 70.62 124.48 72.228V73.884H136.648ZM152.779 84.288C151.027 84.288 149.611 83.736 148.531 82.632C147.451 81.504 146.911 80.016 146.911 78.168V72.228C146.911 70.284 147.439 68.724 148.495 67.548C149.575 66.348 150.991 65.748 152.743 65.748H155.695C157.351 65.748 158.683 66.192 159.691 67.08C160.699 67.968 161.203 69.132 161.203 70.572H159.979C159.979 69.468 159.583 68.58 158.791 67.908C157.999 67.236 156.967 66.9 155.695 66.9H152.743C151.375 66.9 150.271 67.392 149.431 68.376C148.591 69.336 148.171 70.62 148.171 72.228V78.168C148.171 79.656 148.591 80.856 149.431 81.768C150.271 82.68 151.387 83.136 152.779 83.136H155.731C157.051 83.136 158.107 82.704 158.899 81.84C159.691 80.952 160.087 79.788 160.087 78.348H161.311C161.311 80.124 160.795 81.564 159.763 82.668C158.755 83.748 157.411 84.288 155.731 84.288H152.779ZM177.243 84C175.467 84 174.195 83.628 173.427 82.884C172.683 82.14 172.311 80.904 172.311 79.176V67.188H169.179V66.036H172.347V60.6H173.571V66.036H178.251V67.188H173.571V79.176C173.571 80.496 173.835 81.444 174.363 82.02C174.915 82.572 175.827 82.848 177.099 82.848H178.251V84H177.243ZM192.77 84.288C191.282 84.288 190.07 83.784 189.134 82.776C188.222 81.744 187.766 80.4 187.766 78.744V66.036H189.026V78.744C189.026 80.064 189.362 81.132 190.034 81.948C190.73 82.74 191.642 83.136 192.77 83.136H195.002C195.674 83.136 196.382 82.884 197.126 82.38C197.894 81.852 198.578 81.18 199.178 80.364C199.778 79.548 200.186 78.696 200.402 77.808V66.036H201.662V84H200.438V80.292C199.766 81.468 198.926 82.428 197.918 83.172C196.934 83.916 195.974 84.288 195.038 84.288H192.77ZM212.305 66.036H213.529V69.132C214.081 68.124 214.849 67.344 215.833 66.792C216.841 66.24 217.945 65.964 219.145 65.964H220.261V67.116H219.109C218.077 67.116 217.129 67.356 216.265 67.836C215.425 68.292 214.765 68.94 214.285 69.78C213.805 70.62 213.565 71.58 213.565 72.66V84H212.305V66.036ZM233.589 84.288C231.789 84.288 230.337 83.736 229.233 82.632C228.153 81.504 227.613 80.028 227.613 78.204V72.228C227.613 70.284 228.153 68.724 229.233 67.548C230.337 66.348 231.777 65.748 233.553 65.748H236.505C238.257 65.748 239.661 66.324 240.717 67.476C241.773 68.628 242.301 70.164 242.301 72.084V75H228.873V78.204C228.873 79.692 229.305 80.892 230.169 81.804C231.033 82.692 232.173 83.136 233.589 83.136H236.325C237.717 83.136 238.833 82.716 239.673 81.876C240.537 81.036 240.969 79.932 240.969 78.564H242.229C242.229 80.268 241.677 81.648 240.573 82.704C239.493 83.76 238.077 84.288 236.325 84.288H233.589ZM241.041 73.884V72.084C241.041 70.524 240.621 69.276 239.781 68.34C238.965 67.38 237.873 66.9 236.505 66.9H233.553C232.137 66.9 230.997 67.392 230.133 68.376C229.293 69.336 228.873 70.62 228.873 72.228V73.884H241.041Z" fill="#A7B1B9"/>
<g filter="url(#filter0_d_76_701)">
<rect width="39.4037" height="39.116" transform="matrix(0.866025 0.5 -0.866025 0.5 341.875 44.4753)" fill="white"/>
</g>
<rect width="39.3503" height="39.3157" transform="matrix(0.866025 0.5 -2.20305e-08 1 308 25.5876)" fill="#344451"/>
<rect width="39.116" height="39.404" transform="matrix(0.866025 -0.5 2.20305e-08 1 342.079 45.0574)" fill="#4F6271"/>
<rect width="39.4037" height="39.116" transform="matrix(0.866025 0.5 -0.866025 0.5 341.875 6)" fill="#7A8A97"/>
<rect x="276" y="6" width="1" height="78" fill="#FF375C"/>
<defs>
<filter id="filter0_d_76_701" x="283" y="29.4753" width="98" height="69.2598" filterUnits="userSpaceOnUse" color-interpolation-filters="sRGB">
<feFlood flood-opacity="0" result="BackgroundImageFix"/>
<feColorMatrix in="SourceAlpha" type="matrix" values="0 0 0 0 0 0 0 0 0 0 0 0 0 0 0 0 0 0 127 0" result="hardAlpha"/>
<feOffset dx="-10"/>
<feGaussianBlur stdDeviation="7.5"/>
<feComposite in2="hardAlpha" operator="out"/>
<feColorMatrix type="matrix" values="0 0 0 0 0 0 0 0 0 0 0 0 0 0 0 0 0 0 1 0"/>
<feBlend mode="normal" in2="BackgroundImageFix" result="effect1_dropShadow_76_701"/>
<feBlend mode="normal" in="SourceGraphic" in2="effect1_dropShadow_76_701" result="shape"/>
</filter>
</defs>
</svg>
